<?xml version="1.0" standalone="no"?><!DOCTYPE svg PUBLIC "-//W3C//DTD SVG 1.1//EN" "http://www.w3.org/Graphics/SVG/1.1/DTD/svg11.dtd"><svg t="1728826003085" class="icon" viewBox="0 0 1220 1024" version="1.1" xmlns="http://www.w3.org/2000/svg" p-id="3035" id="mx_n_1728826003086" width="57.1875" height="48" xmlns:xlink="http://www.w3.org/1999/xlink"><path d="M195.864845 556.924668l-17.652129 2.118256a418.355456 418.355456 0 0 0 9.355629 52.956386l17.652129-4.059989a383.051198 383.051198 0 0 1-9.355629-51.014653zM190.922249 398.232029l17.652129 4.589553a446.598862 446.598862 0 0 1 16.063438-49.779003l-16.239959-6.707809a437.243234 437.243234 0 0 0-17.475608 51.897259zM203.27874 663.720048a386.934666 386.934666 0 0 0 22.065161 49.425961l15.533873-8.2965a405.998966 405.998966 0 0 1-21.006033-47.307706zM651.819336 99.204965l1.941734-17.652129a426.828478 426.828478 0 0 0-54.015514-2.294777v17.652129a422.415446 422.415446 0 0 1 52.07378 2.294777zM758.614716 105.912774a405.998966 405.998966 0 0 0-51.720738-15.710395l-4.059989 17.652129a373.342527 373.342527 0 0 1 49.602482 15.710395zM854.289255 156.221341a441.303224 441.303224 0 0 0-46.248578-27.890364l-8.119979 15.710395a433.359766 433.359766 0 0 1 44.306843 26.654715zM232.05171 298.4975l15.357352 8.826065a415.707637 415.707637 0 0 1 28.243406-42.541631l-14.121703-10.591277a441.303224 441.303224 0 0 0-29.479055 44.306843zM336.19927 176.521289a388.346837 388.346837 0 0 0-39.71729 35.304258l12.709533 12.179969a397.702465 397.702465 0 0 1 38.128599-35.304258zM548.37786 101.32322l-2.471298-17.652129a436.890191 436.890191 0 0 0-67.607654 15.533874l5.295639 17.652129a442.715394 442.715394 0 0 1 64.783313-15.533874zM435.227714 134.862265l-7.413894-16.063437a457.366661 457.366661 0 0 0-47.660748 25.419065l9.355628 15.00431a404.939838 404.939838 0 0 1 45.719014-24.359938zM623.752451 926.560248v17.652129a458.955353 458.955353 0 0 0 52.956387-5.47216l-3.000862-17.652129a418.002413 418.002413 0 0 1-49.955525 5.47216zM325.784514 839.358731a481.726599 481.726599 0 0 0 42.894674 32.656439l9.885192-14.827789a415.707637 415.707637 0 0 1-41.305982-31.244268zM952.788134 280.845371a433.889329 433.889329 0 0 1 26.125151 44.659887l15.710395-7.943458a396.113773 396.113773 0 0 0-27.184279-46.601621zM1021.454916 474.136183a391.347699 391.347699 0 0 1 1.41217 51.89726h17.652129a393.642475 393.642475 0 0 0-1.588691-54.015515zM1025.161863 396.643337c-2.824341-9.885192-6.001724-19.770384-9.355628-29.302534l-16.593001 5.825203c3.177383 9.179107 6.178245 18.534735 8.826064 28.243406s3.706947 14.298224 5.295639 21.535597l17.652129-3.706947-5.825203-22.594725zM965.321146 723.737287l15.180831 8.826064a409.705913 409.705913 0 0 0 24.536459-48.013791l-16.063437-7.060851A407.234615 407.234615 0 0 1 965.321146 723.737287zM415.280808 899.022927a472.017928 472.017928 0 0 0 49.779004 21.006034l5.825202-16.593002a419.944148 419.944148 0 0 1-47.660748-20.829512zM516.957071 935.562834a425.416308 425.416308 0 0 0 52.956387 8.119979l1.588691-17.652129a453.306671 453.306671 0 0 1-51.191174-7.766936zM902.126524 804.760559l12.533012 12.533011a488.78745 488.78745 0 0 0 35.304258-40.599896l-14.121703-10.767799a418.88502 418.88502 0 0 1-33.715567 38.834684zM820.044125 868.308223l9.002586 15.180831a431.771074 431.771074 0 0 0 44.659886-30.361662l-10.767799-13.945182a389.935528 389.935528 0 0 1-42.894673 29.126013zM725.781756 909.614204l5.119118 17.652129a422.591967 422.591967 0 0 0 50.66161-17.652129l-7.060852-16.239958a380.932943 380.932943 0 0 1-48.719876 16.239958z" fill="#90E4C6" p-id="3036"></path><path d="M1219.511803 521.090846l-90.555422-319.150491a35.304258 35.304258 0 0 0-44.130322-24.359938l-72.726771 20.652991A511.911739 511.911739 0 0 0 99.3077 457.366661l-73.609378 20.652991a35.304258 35.304258 0 0 0-24.359938 43.600758l91.438028 319.150492A35.304258 35.304258 0 0 0 136.377171 864.954318l80.84675-22.947767a511.911739 511.911739 0 0 0 897.081193-254.367178L1195.328386 564.868126a35.304258 35.304258 0 0 0 24.183417-43.77728z m-741.389416-476.607481a486.492674 486.492674 0 0 1 506.263058 162.046544l-56.13377 15.886916q-15.357352-17.652129-32.303396-32.303396l-11.650405 13.239096c8.649543 7.766937 17.652129 16.063437 24.889502 24.53646l-120.034477 34.068609a308.206171 308.206171 0 0 0-263.016721-47.484227h-1.765213a308.206171 308.206171 0 0 0-202.116876 179.698672L126.845021 449.599724A486.139631 486.139631 0 0 1 478.828472 43.953801z m-39.893811 706.085158a290.201 290.201 0 0 1-108.207551-328.329599l466.016204-132.214445a289.318393 289.318393 0 0 1 80.140666 335.390449z m420.473711-89.849337a290.024479 290.024479 0 0 1-172.637821 132.567489h-1.941734a289.671436 289.671436 0 0 1-211.825547-23.124289zM344.31925 388.346837a290.024479 290.024479 0 0 1 185.347354-156.397863h1.941734a291.083606 291.083606 0 0 1 235.4794 35.833822zM157.206683 829.65006c-17.652129 5.119117-35.304258 4.236511-41.305982-22.947767L39.466983 538.566454c-6.531288-23.830374-8.649543-31.42079 23.124289-41.12946l35.304258-9.885193a510.499569 510.499569 0 0 0 100.970177 330.447854z m68.137218-19.24082a487.022238 487.022238 0 0 1-85.083262-168.930874 481.373556 481.373556 0 0 1-16.239958-161.340459l54.368557-15.533873c-1.41217 13.592139-2.471298 27.184279-2.64782 40.599896h17.652129a401.232891 401.232891 0 0 1 3.353905-45.895535l114.032753-32.303396a306.087916 306.087916 0 0 0 107.148422 328.50612l-118.445785 33.715566a403.88071 403.88071 0 0 1-31.597311-40.070333l-14.474745 9.885193a403.704189 403.704189 0 0 0 27.537321 35.304257z m511.911739 169.636959a486.139631 486.139631 0 0 1-492.317876-145.806585L448.290289 776.693674a307.323565 307.323565 0 0 0 241.304603 33.362523h1.765213A307.323565 307.323565 0 0 0 883.238746 653.128771l126.036201-35.304258c0 3.530426-1.765213 7.060852-2.824341 10.591277l17.652129 4.942596c2.118255-6.88433 3.883468-14.121703 5.47216-21.182554l57.369419-16.239959a485.96311 485.96311 0 0 1-349.335631 383.933805zM1090.651262 564.868126l-55.251164 15.710395-17.652129-2.824341-1.588692 8.11998-118.092742 33.539045a306.087916 306.087916 0 0 0-81.552836-335.39045l186.936046-52.956387a481.020514 481.020514 0 0 1 72.550249 152.161351A486.139631 486.139631 0 0 1 1090.651262 564.868126z m68.49026-19.417342l-40.952939 11.650405a511.911739 511.911739 0 0 0-88.260645-334.1548l34.068609-9.708671c25.066023-6.88433 36.716428-1.765213 41.305982 23.124289l76.257197 267.782796c9.179107 25.419066 3.177383 34.24513-22.418204 41.12946z" fill="#90E4C6" p-id="3037"></path><path d="M62.591272 497.436994l1001.934839-284.375798c25.066023-6.88433 36.716428-1.765213 41.305981 23.124289l76.257197 267.782796c7.766937 25.94863 2.647819 34.421651-22.947767 41.305982L157.206683 829.65006c-17.652129 5.119117-35.304258 4.236511-41.305982-22.947767L39.466983 538.566454c-6.531288-23.830374-8.649543-31.42079 23.124289-41.12946z" fill="#FFFFFF" p-id="3038"></path><path d="M230.816061 644.83227l20.652991 70.608516a13.239097 13.239097 0 0 0 18.711256 10.061714l126.212722-37.069471a20.123427 20.123427 0 0 0 11.120841-8.296501 105.912774 105.912774 0 0 0-5.47216-48.190312h25.94863c6.354766 33.009481 7.590415 52.956387 4.05999 60.723324a39.71729 39.71729 0 0 1-21.88864 16.41648l-139.804861 41.12946a30.18514 30.18514 0 0 1-42.012067-24.006895l-39.011205-132.214446 24.359938-7.060852 10.414756 35.304258L356.852261 582.520255l-17.652129-60.370281-167.518703 49.425961-6.884331-23.124289 192.231685-56.663334 31.420789 105.912774zM528.254433 680.489571l-12.35649-21.712119a149.513532 149.513532 0 0 0 19.417342-4.413032 8.119979 8.119979 0 0 0 6.531288-11.473884l-16.063438-54.898121c-8.119979 6.178245-16.593001 12.35649-25.066023 17.652129l-13.239096-22.418204a312.08964 312.08964 0 0 0 31.067746-20.123427l-15.357352-51.191174-28.949491 8.473022-7.237373-23.477331 28.77297-8.473022-13.415618-46.072057 24.359938-7.060851 13.592139 45.895535 19.0643-5.648681 6.707809 23.124289-19.0643 5.648681 12.356491 42.012067c5.47216-4.942596 10.94432-10.238235 16.063437-15.180831l7.060852 24.359938c-5.295639 5.119117-10.767799 10.061713-16.063438 14.827788l21.182555 70.608516a23.124289 23.124289 0 0 1-17.652129 32.303396z m89.496294-193.290812l21.535597-6.354767a340.686089 340.686089 0 0 0 5.825203-40.599896l-90.908464 26.831236-6.531288-21.88864 52.956387-15.533874a187.642131 187.642131 0 0 0-13.768661-16.416479l23.830375-11.473884c4.589554 6.178245 9.355628 13.062575 14.474745 20.652991l55.427685-16.41648 6.354767 21.88864-33.009482 9.708671 15.886916 0.882606a225.241165 225.241165 0 0 1-5.119117 35.304258l37.422513-10.94432 6.707809 23.124289-143.158765 42.188588-6.884331-23.124289 35.304258-10.591277q-11.120841-12.35649-21.712118-22.241683l17.652129-14.827788a339.626961 339.626961 0 0 1 27.713842 29.832098z m19.946906 26.301672c0 6.531288-1.235649 12.886054-1.941734 18.887778l84.024133-24.889502 6.884331 23.477332-26.301672 7.766936a104.500603 104.500603 0 0 1-8.473022 49.425961c17.652129 2.471298 35.304258 5.648681 52.956387 9.708671l-7.413895 23.124289a473.60662 473.60662 0 0 0-58.252025-11.826926 230.713325 230.713325 0 0 1-70.608516 51.367695l-15.710395-19.064299a241.834167 241.834167 0 0 0 57.016377-36.363386c-16.593001-2.118255-33.892088-4.05999-52.956387-5.648681 3.530426-11.650405 6.178245-22.594725 8.649543-33.009481l-30.18514 8.826064-6.884331-23.30081 42.188589-12.533011c1.059128-7.590415 1.941734-14.827788 2.471298-21.535598z m-7.237373 45.719014a183.229098 183.229098 0 0 1-6.354766 21.88864c14.651267 0 28.77297 1.941734 43.247715 3.883468a82.0824 82.0824 0 0 0 10.414757-39.540769zM975.912423 319.856576A1500.43096 1500.43096 0 0 1 782.798133 388.346837l-13.59214-19.417342a1701.135666 1701.135666 0 0 0 189.054301-66.195484z m42.36511 113.50319l-23.653853 7.060851-11.297362-38.30512-170.166523 50.132047 11.297362 38.305119-23.653853 6.884331-17.652129-60.899845 43.071195-12.886054a204.411653 204.411653 0 0 0-32.656439-23.477332l17.652129-17.652129a370.694708 370.694708 0 0 1 35.304258 26.478194l-12.886054 11.826926 52.956387-15.533873a221.71074 221.71074 0 0 0-33.186002-25.419066l17.652128-17.652129a368.576452 368.576452 0 0 1 33.539045 25.595587l-17.652128 16.41648 41.305981-12.179969a274.137562 274.137562 0 0 0 10.591278-52.956387l27.007757 1.941734a291.789691 291.789691 0 0 1-11.826927 43.247716l45.542493-13.415618z m-39.364248-8.649544l6.178245 20.652991a141.217032 141.217032 0 0 1-32.126874 63.194622 479.784865 479.784865 0 0 0 93.909326 0l-7.590416 25.772108a442.715394 442.715394 0 0 1-105.912773-3.883468 458.955353 458.955353 0 0 1-95.674539 63.371143l-19.417342-19.240821a455.424927 455.424927 0 0 0 85.259783-51.897259 139.804861 139.804861 0 0 1-59.487675-35.304258l-9.002586 2.647819-6.531287-21.712118z m-54.368557 79.434581a140.157904 140.157904 0 0 0 33.715566-49.602483l-89.143251 26.301672a137.686606 137.686606 0 0 0 55.074643 23.300811z" fill="#46D2A1" p-id="3039"></path></svg>