<?xml version="1.0" standalone="no"?><!DOCTYPE svg PUBLIC "-//W3C//DTD SVG 1.1//EN" "http://www.w3.org/Graphics/SVG/1.1/DTD/svg11.dtd"><svg t="1728826310282" class="icon" viewBox="0 0 1024 1024" version="1.1" xmlns="http://www.w3.org/2000/svg" p-id="3786" width="48" height="48" xmlns:xlink="http://www.w3.org/1999/xlink"><path d="M615.458 935.731a438.554 438.554 0 0 1-25.6 5.598 41.472 41.472 0 0 0 15.019 81.476 471.19 471.19 0 0 0 30.48-6.656 41.438 41.438 0 0 0 30.004-50.21 41.13 41.13 0 0 0-49.903-30.208z m304.435-555.486a40.982 40.982 0 0 0 15.36 20.822c10.274 7.338 23.757 9.796 36.66 5.495 21.572-7.202 33.245-30.652 26.112-52.36a517.12 517.12 0 0 0-10.684-29.492 41.062 41.062 0 0 0-53.521-23.108c-21.095 8.5-31.403 32.597-22.938 53.863a420.602 420.602 0 0 1 9.011 24.78zM749.227 876.544a392.425 392.425 0 0 1-22.29 13.892 41.609 41.609 0 0 0-3.14 69.769 40.96 40.96 0 0 0 44.271 2.048c8.977-5.257 17.92-10.786 26.556-16.555a41.643 41.643 0 0 0 11.64-57.412 40.96 40.96 0 0 0-57.003-11.742z m274.398-380.553a41.301 41.301 0 0 0-42.77-39.765 41.335 41.335 0 0 0-39.492 43.008c0.342 8.772 0.444 17.647 0.24 26.351-0.342 14.336 6.655 27.136 17.475 34.816 6.452 4.574 14.268 7.373 22.767 7.544a41.301 41.301 0 0 0 42.053-40.517 506.797 506.797 0 0 0-0.273-31.402zM913.169 767.556a40.96 40.96 0 0 0-57.617 8.26 456.648 456.648 0 0 1-16.384 20.617 41.643 41.643 0 0 0 7.68 60.757 40.96 40.96 0 0 0 54.989-7.031 501.645 501.645 0 0 0 19.558-24.576 41.643 41.643 0 0 0-8.226-58.027z m60.518-149.845a41.097 41.097 0 0 0-51.61 27.17c-2.593 8.329-5.46 16.725-8.6 24.917a41.643 41.643 0 0 0 23.824 53.487 41.062 41.062 0 0 0 53.112-23.961 543.362 543.362 0 0 0 10.24-29.662 41.506 41.506 0 0 0-26.966-51.917zM435.883 941.705a422.912 422.912 0 0 1-105.575-33.792l-1.16-0.615c-7.85-3.755-15.77-7.748-23.382-11.947l-0.136-0.034c-13.995-7.782-27.648-16.384-40.96-25.77C71.1 732.16 24.542 461.824 160.939 266.923a429.158 429.158 0 0 1 105.574-105.745l1.468-1.024c141.005-97.86 332.458-104.448 482.201-3.926l-32.153 46.763c-8.943 13.039-3.414 22.528 12.22 21.128l139.673-12.629c15.701-1.365 25.054-15.019 20.821-30.276L853.265 45.158c-4.232-15.257-14.95-17.066-23.893-4.096l-32.256 46.9A505.515 505.515 0 0 0 424.619 8.226c-13.176 2.287-26.18 5.12-38.98 8.363l-0.274 0.068-1.467 0.41a507.358 507.358 0 0 0-281.43 189.918 28.33 28.33 0 0 0-1.775 2.15 488.038 488.038 0 0 0-17.783 25.839c-0.444 0.683-0.785 1.365-1.16 2.014A513.57 513.57 0 0 0 0.682 538.283v1.092a536.293 536.293 0 0 0 2.389 31.3c0.068 0.683 0.205 1.297 0.341 1.98A512.614 512.614 0 0 0 151.04 881.357l0.512 0.546 0.205 0.136a520.964 520.964 0 0 0 65.536 55.194 505.651 505.651 0 0 0 204.117 86.016 41.165 41.165 0 0 0 47.787-33.485 41.404 41.404 0 0 0-33.28-48.128z m50.927-760.491a33.45 33.45 0 0 0-33.349 33.485v334.063l303.446 157.935a33.28 33.28 0 0 0 44.885-14.405 33.621 33.621 0 0 0-14.302-45.158L520.055 507.938v-293.24a33.417 33.417 0 0 0-33.245-33.552z" fill="#F7A023" p-id="3787"></path></svg>