<?xml version="1.0" standalone="no"?><!DOCTYPE svg PUBLIC "-//W3C//DTD SVG 1.1//EN" "http://www.w3.org/Graphics/SVG/1.1/DTD/svg11.dtd"><svg t="1740486689898" class="icon" viewBox="0 0 1024 1024" version="1.1" xmlns="http://www.w3.org/2000/svg" p-id="6643" xmlns:xlink="http://www.w3.org/1999/xlink" width="200" height="200"><path d="M905.114551 218.749226v-12.681115h-142.662539c3.170279-60.235294 0-114.130031 0-114.130031H258.377709s-3.170279 50.724458 0 114.130031H115.71517v57.065016c0 44.383901 9.510836 107.789474 38.043344 171.195046 25.362229 53.894737 63.405573 98.278638 110.959752 133.151703 41.213622 28.532508 85.597523 50.724458 133.151703 63.405573 28.532508 31.702786 57.065015 47.55418 82.427245 53.894737v63.405573c0 15.851393-22.19195 76.086687-171.195047 76.086687h-22.19195v57.065015h450.179566V824.272446h-22.19195c-174.365325 0-174.365325-85.597523-174.365325-85.597523v-57.065016c25.362229-6.340557 53.894737-22.19195 79.256966-53.894737 50.724458-12.681115 95.108359-31.702786 136.321981-63.405572 47.55418-34.873065 85.597523-79.256966 110.959752-133.151703 41.213622-85.597523 41.213622-168.024768 38.043344-212.408669z m-697.4613 190.216718c-25.362229-53.894737-31.702786-104.619195-34.873065-145.832817h88.767802c3.170279 15.851393 3.170279 31.702786 6.340557 44.383901 15.851393 88.767802 34.873065 168.024768 76.086687 237.770898-60.235294-28.532508-107.789474-76.086687-136.321981-136.321982zM584.916409 507.244582c-22.19195 22.19195-50.724458 31.702786-82.427245 31.702786-28.532508 0-53.894737-9.510836-72.916409-25.362229-19.021672-19.021672-31.702786-41.213622-34.873065-69.74613l41.213623-6.340557c3.170279 19.021672 12.681115 38.043344 25.362229 50.724458 12.681115 9.510836 25.362229 15.851393 41.213622 15.851393 19.021672 0 38.043344-6.340557 50.724458-19.021671 12.681115-12.681115 22.19195-31.702786 19.021672-50.724459 0-19.021672-6.340557-34.873065-19.021672-47.554179-12.681115-12.681115-28.532508-19.021672-47.554179-19.021672-9.510836 0-19.021672 3.170279-28.532508 3.170279l3.170279-38.043344h6.340557c15.851393 0 34.873065-3.170279 47.554179-12.681115 15.851393-9.510836 22.19195-25.362229 22.191951-44.383901 0-15.851393-6.340557-28.532508-15.851393-38.043343-9.510836-9.510836-25.362229-15.851393-41.213623-15.851393s-28.532508 6.340557-41.213622 15.851393c-9.510836 15.851393-15.851393 31.702786-19.021672 47.554179l-41.213622-6.340557c3.170279-25.362229 15.851393-47.55418 34.873065-66.575851 19.021672-15.851393 44.383901-22.19195 69.74613-22.191951 19.021672 0 34.873065 3.170279 50.724458 12.681115 15.851393 6.340557 28.532508 19.021672 34.873065 31.702786 9.510836 12.681115 12.681115 28.532508 12.681115 44.383901 0 15.851393-3.170279 28.532508-12.681115 41.213622-9.510836 12.681115-22.19195 22.19195-34.873065 28.532508 19.021672 3.170279 34.873065 12.681115 47.55418 28.532508 12.681115 15.851393 15.851393 34.873065 15.851393 53.894737 0 28.532508-9.510836 57.065015-31.702786 76.086687z m231.43034-98.278638c-28.532508 60.235294-76.086687 107.789474-136.321981 139.49226 38.043344-69.74613 60.235294-149.003096 76.086687-237.770897 3.170279-15.851393 3.170279-28.532508 6.340557-44.383901h88.767802c-3.170279 34.873065-9.510836 88.767802-34.873065 142.662538z" fill="#e9a63d" p-id="6644"></path></svg>