<?xml version="1.0" standalone="no"?><!DOCTYPE svg PUBLIC "-//W3C//DTD SVG 1.1//EN" "http://www.w3.org/Graphics/SVG/1.1/DTD/svg11.dtd"><svg t="1740485760490" class="icon" viewBox="0 0 1024 1024" version="1.1" xmlns="http://www.w3.org/2000/svg" p-id="8465" xmlns:xlink="http://www.w3.org/1999/xlink" width="200" height="200"><path d="M708.096 976.896H334.848c65.536-44.032 123.904-74.24 136.192-150.016 10.752-59.904 3.584-118.272-38.912-155.648-56.32-51.2-100.864-116.736-182.272-146.944-125.44-46.08-221.184-291.84-175.104-418.816 10.752-30.208 30.208-40.448 58.368-44.032 38.912-5.12 105.984 3.584 105.984 3.584l10.752-17.92 523.264 2.048 5.12 20.992s82.944-12.288 116.736-8.704c36.864 3.584 54.784 26.624 59.904 63.488 28.16 175.104-59.904 332.288-221.184 418.816-65.536 35.328-121.856 92.16-157.184 159.232-47.104 100.864-10.24 185.344 131.584 273.92zM112.128 204.288c10.752 90.112 30.208 180.224 104.448 249.344 12.288 12.288 28.16 24.576 46.08 17.92 20.992-10.752 10.752-30.208 7.168-46.08-15.872-74.24-23.04-150.016-23.04-226.304 0-46.08 10.752-100.864-63.488-97.28-67.584 0-67.584 49.664-71.168 102.4z m640 268.8c121.856-36.864 210.432-258.048 152.064-346.624-19.456-30.208-47.616-30.208-77.824-26.624-28.16 3.584-40.448 23.04-40.448 47.616 0 108.032-2.048 216.064-33.792 325.632z" fill="#FFCA05" p-id="8466"></path><path d="M665.6 82.432h79.36s53.248 381.952-139.776 530.432c0 0 116.736-273.92 60.416-530.432z" fill="#FADB6D" p-id="8467"></path><path d="M496.128 211.456h-1.024l-63.488 43.52c-4.096 2.56-6.656 1.024-6.656-4.096V178.176c0-3.072 1.536-5.632 4.096-8.192l67.072-48.128c2.56-2.56 6.144-3.584 10.752-3.584h65.536c4.096 0 5.632 2.048 5.632 5.632v387.072c0 4.096-2.048 5.632-5.632 5.632H502.272c-4.096 0-5.632-2.048-5.632-5.632V211.456z" fill="#FFFFFF" p-id="8468"></path></svg>