<?xml version="1.0" standalone="no"?><!DOCTYPE svg PUBLIC "-//W3C//DTD SVG 1.1//EN" "http://www.w3.org/Graphics/SVG/1.1/DTD/svg11.dtd"><svg t="1740486630846" class="icon" viewBox="0 0 1024 1024" version="1.1" xmlns="http://www.w3.org/2000/svg" p-id="5547" xmlns:xlink="http://www.w3.org/1999/xlink" width="200" height="200"><path d="M901.944272 221.919505v-12.681115h-142.662538c3.170279-60.235294 0-114.130031 0-114.130031h-507.244582s-3.170279 50.724458 0 114.130031H112.544892v57.065016c0 44.383901 9.510836 107.789474 38.043343 171.195046 25.362229 53.894737 63.405573 98.278638 110.959753 133.151703 41.213622 28.532508 85.597523 50.724458 133.151702 63.405573 28.532508 31.702786 57.065015 47.55418 82.427245 53.894736v63.405573c-3.170279 19.021672-25.362229 82.427245-174.365325 82.427245h-22.191951v57.065015h450.179567v-57.065015h-22.19195c-174.365325 0-174.365325-85.597523-174.365326-85.597523v-57.065016c25.362229-6.340557 53.894737-22.19195 79.256966-53.894737 50.724458-12.681115 95.108359-31.702786 136.321982-63.405573 47.55418-34.873065 85.597523-79.256966 110.959752-133.151702 44.383901-88.767802 41.213622-174.365325 41.213622-218.749226zM201.312693 412.136223c-25.362229-53.894737-31.702786-104.619195-34.873065-145.832817H258.377709c3.170279 15.851393 3.170279 31.702786 6.340557 44.383901 15.851393 88.767802 34.873065 168.024768 76.086688 237.770897-63.405573-28.532508-107.789474-76.086687-139.492261-136.321981z m418.476781 120.470588h-225.089784c0-9.510836 0-19.021672 6.340558-28.532508 6.340557-15.851393 15.851393-31.702786 28.532507-44.383901 15.851393-19.021672 34.873065-34.873065 53.894737-50.724458 28.532508-22.19195 53.894737-44.383901 76.086688-72.916408 12.681115-12.681115 19.021672-31.702786 19.021671-50.724459 0-15.851393-6.340557-31.702786-19.021671-41.213622-12.681115-12.681115-28.532508-19.021672-47.55418-15.851393-19.021672 0-34.873065 6.340557-47.55418 19.021672-12.681115 12.681115-19.021672 31.702786-19.021671 50.724458l-44.383901-3.170279c0-28.532508 12.681115-53.894737 31.702786-72.916408 25.362229-25.362229 50.724458-31.702786 79.256966-31.702787 28.532508 0 57.065015 9.510836 76.086687 28.532508 19.021672 15.851393 28.532508 41.213622 28.532508 66.575851 0 12.681115-3.170279 28.532508-9.510836 41.213623-6.340557 15.851393-15.851393 28.532508-28.532508 41.213622-19.021672 22.19195-41.213622 41.213622-63.405572 60.235294-25.362229 22.19195-41.213622 34.873065-47.55418 44.383901-6.340557 6.340557-12.681115 15.851393-19.021672 22.19195h168.024768v38.043344z m190.216718-120.470588c-28.532508 60.235294-76.086687 107.789474-136.321981 139.49226 38.043344-69.74613 60.235294-149.003096 76.086687-237.770898 3.170279-15.851393 3.170279-28.532508 6.340557-44.383901h88.767802c0 38.043344-9.510836 88.767802-34.873065 142.662539z" fill="#b0b0b0" p-id="5548"></path></svg>